# xmcd
# 
# Track frame offsets:
#     150
#     17822
#     32233
#     48231
#     66774
#     85036
#     105531
#     122351
#     133853
#     150926
# 
# Disc length: 2244
# 
# Revision: 1
# Processed by: cddbd v1.5.2PL0 Copyright (c) Steve Scherf et al.
# Submitted via: fre:ac v1.1beta1pre4
# 
DISCID=7308c20a
DTITLE=Garth Brooks - In Pieces
DYEAR=1993
DGENRE=Country
TTITLE0=Standing Outside The Fire
TTITLE1=The Night I Called The Old Man Out
TTITLE2=American Honky-Tonk Bar Association
TTITLE3=One Night A Day
TTITLE4=Kickin' And Screemin'
TTITLE5=Aint Going Down('Til The Sun Comes Up)
TTITLE6=The Red Strokes
TTITLE7=Callin' Baton Rouge
TTITLE8=The Night Will Only Know
TTITLE9=The Cowboy Song
EXTD=
EXTT0=
EXTT1=
EXTT2=
EXTT3=
EXTT4=
EXTT5=
EXTT6=
EXTT7=
EXTT8=
EXTT9=
PLAYORDER=
